<svg width="556" height="556" viewBox="0 0 556 556" fill="none" xmlns="http://www.w3.org/2000/svg">
<g filter="url(#filter0_d_25_197)">
<circle cx="278" cy="276" r="250" fill="white"/>
</g>
<path d="M103.226 248.92V238.936C105.274 238.936 106.97 238.808 108.314 238.552C109.658 238.296 110.682 237.848 111.386 237.208C112.154 236.504 112.698 235.512 113.018 234.232C113.338 232.888 113.498 231.192 113.498 229.144V169.24H127.61V229.72C127.61 234.072 127.098 237.688 126.074 240.568C125.05 243.384 123.258 245.496 120.698 246.904C118.202 248.248 114.65 248.92 110.042 248.92H103.226ZM155.37 247.864C151.338 247.864 148.01 247.128 145.386 245.656C142.762 244.12 140.778 241.912 139.434 239.032C138.154 236.152 137.514 232.664 137.514 228.568V209.944C137.514 205.848 138.154 202.36 139.434 199.48C140.778 196.6 142.762 194.424 145.386 192.952C148.01 191.416 151.338 190.648 155.37 190.648C159.402 190.648 162.73 191.416 165.354 192.952C168.042 194.424 170.026 196.6 171.306 199.48C172.65 202.36 173.322 205.848 173.322 209.944V228.568C173.322 232.664 172.65 236.152 171.306 239.032C170.026 241.912 168.042 244.12 165.354 245.656C162.73 247.128 159.402 247.864 155.37 247.864ZM155.466 238.84C156.938 238.84 158.026 238.424 158.73 237.592C159.434 236.76 159.882 235.64 160.074 234.232C160.266 232.76 160.362 231.16 160.362 229.432V209.08C160.362 207.352 160.266 205.784 160.074 204.376C159.882 202.968 159.434 201.848 158.73 201.016C158.026 200.12 156.938 199.672 155.466 199.672C153.994 199.672 152.906 200.12 152.202 201.016C151.498 201.848 151.018 202.968 150.762 204.376C150.57 205.784 150.474 207.352 150.474 209.08V229.432C150.474 231.16 150.57 232.76 150.762 234.232C151.018 235.64 151.498 236.76 152.202 237.592C152.906 238.424 153.994 238.84 155.466 238.84ZM206.162 247.864C204.114 247.864 202.194 247.384 200.402 246.424C198.61 245.464 196.946 244.28 195.41 242.872V247H182.354V169.24H195.41V195.736C197.01 194.2 198.738 192.984 200.594 192.088C202.514 191.128 204.562 190.648 206.738 190.648C209.234 190.648 211.282 191.224 212.882 192.376C214.482 193.528 215.73 195.064 216.626 196.984C217.522 198.84 218.13 200.856 218.45 203.032C218.834 205.144 219.026 207.192 219.026 209.176V227.992C219.026 231.64 218.578 234.968 217.682 237.976C216.85 240.984 215.474 243.384 213.554 245.176C211.698 246.968 209.234 247.864 206.162 247.864ZM201.17 238.744C202.578 238.744 203.602 238.296 204.242 237.4C204.946 236.44 205.394 235.192 205.586 233.656C205.842 232.056 205.97 230.328 205.97 228.472V208.6C205.97 206.872 205.842 205.336 205.586 203.992C205.33 202.584 204.85 201.464 204.146 200.632C203.506 199.8 202.482 199.384 201.074 199.384C200.05 199.384 199.058 199.64 198.098 200.152C197.138 200.6 196.242 201.112 195.41 201.688V236.728C196.242 237.304 197.138 237.784 198.098 238.168C199.122 238.552 200.146 238.744 201.17 238.744Z" fill="#2433BC"/>
<path d="M259.991 247V179.704H247.607V169.24H286.391V179.704H274.199V247H259.991ZM292.889 247V191.512H305.945V200.056C307.865 196.792 309.785 194.456 311.705 193.048C313.625 191.576 315.737 190.84 318.041 190.84C318.425 190.84 318.745 190.872 319.001 190.936C319.321 190.936 319.673 190.968 320.057 191.032V204.568C319.289 204.248 318.425 203.992 317.465 203.8C316.569 203.544 315.641 203.416 314.681 203.416C312.953 203.416 311.385 203.832 309.977 204.664C308.569 205.496 307.225 206.872 305.945 208.792V247H292.889ZM337.01 247.864C334.514 247.864 332.37 247.224 330.578 245.944C328.786 244.6 327.41 242.936 326.45 240.952C325.49 238.904 325.01 236.792 325.01 234.616C325.01 231.16 325.65 228.248 326.93 225.88C328.21 223.512 329.906 221.528 332.018 219.928C334.13 218.328 336.53 216.952 339.218 215.8C341.906 214.584 344.626 213.496 347.378 212.536V207.736C347.378 206.136 347.25 204.792 346.994 203.704C346.802 202.616 346.386 201.784 345.746 201.208C345.17 200.632 344.242 200.344 342.962 200.344C341.874 200.344 340.978 200.6 340.274 201.112C339.634 201.624 339.154 202.36 338.834 203.32C338.578 204.216 338.418 205.272 338.354 206.488L338.162 209.848L325.778 209.368C325.97 202.968 327.538 198.264 330.482 195.256C333.49 192.184 338.034 190.648 344.114 190.648C349.682 190.648 353.714 192.184 356.21 195.256C358.77 198.328 360.05 202.488 360.05 207.736V233.368C360.05 235.416 360.082 237.272 360.146 238.936C360.274 240.6 360.402 242.104 360.53 243.448C360.722 244.792 360.882 245.976 361.01 247H349.298C349.106 245.72 348.85 244.28 348.53 242.68C348.274 241.016 348.082 239.8 347.954 239.032C347.314 241.272 346.098 243.32 344.306 245.176C342.514 246.968 340.082 247.864 337.01 247.864ZM341.81 238.168C342.642 238.168 343.41 237.976 344.114 237.592C344.882 237.144 345.554 236.632 346.13 236.056C346.706 235.48 347.122 234.968 347.378 234.52V219.064C345.97 219.896 344.626 220.728 343.346 221.56C342.13 222.392 341.042 223.32 340.082 224.344C339.186 225.304 338.482 226.36 337.97 227.512C337.522 228.664 337.298 230.008 337.298 231.544C337.298 233.592 337.682 235.224 338.45 236.44C339.282 237.592 340.402 238.168 341.81 238.168ZM386.368 247.864C382.08 247.864 378.624 247.064 376 245.464C373.44 243.8 371.552 241.464 370.336 238.456C369.184 235.384 368.608 231.768 368.608 227.608V210.904C368.608 206.616 369.184 202.968 370.336 199.96C371.552 196.952 373.472 194.648 376.096 193.048C378.72 191.448 382.144 190.648 386.368 190.648C390.336 190.648 393.568 191.288 396.064 192.568C398.624 193.784 400.48 195.672 401.632 198.232C402.784 200.728 403.36 203.896 403.36 207.736V212.344H391.072V207.448C391.072 205.528 390.912 204.024 390.592 202.936C390.336 201.784 389.856 200.984 389.152 200.536C388.448 200.024 387.52 199.768 386.368 199.768C385.216 199.768 384.288 200.088 383.584 200.728C382.88 201.304 382.368 202.264 382.048 203.608C381.792 204.952 381.664 206.808 381.664 209.176V229.528C381.664 233.112 382.048 235.544 382.816 236.824C383.584 238.04 384.8 238.648 386.464 238.648C387.744 238.648 388.704 238.36 389.344 237.784C390.048 237.208 390.496 236.376 390.688 235.288C390.944 234.136 391.072 232.76 391.072 231.16V225.208H403.36V230.488C403.36 234.2 402.752 237.368 401.536 239.992C400.384 242.616 398.528 244.6 395.968 245.944C393.472 247.224 390.272 247.864 386.368 247.864ZM412.041 247V169.24H425.097V213.88L439.401 191.512H453.609L439.689 213.784L453.321 247H439.593L429.513 219.64L425.097 225.784V247H412.041Z" fill="#D87B13"/>
<path d="M203 366C203 367.688 201.5 369 200 369H182C180.312 369 179 367.688 179 366V357H143V384C143 388.875 147.125 393 152 393H230C234.688 393 239 388.875 239 384V357H203V366ZM230 327H215V318C215 313.312 210.688 309 206 309H176C171.125 309 167 313.312 167 318V327H152C147.125 327 143 331.312 143 336V351H239V336C239 331.312 234.688 327 230 327ZM203 327H179V321H203V327Z" fill="#D87B13"/>
<path d="M323 345C329.562 345 335 339.75 335 333C335 326.438 329.562 321 323 321C316.25 321 311 326.438 311 333C311 339.75 316.25 345 323 345ZM407 345C413.562 345 419 339.75 419 333C419 326.438 413.562 321 407 321C400.25 321 395 326.438 395 333C395 339.75 400.25 345 407 345ZM413 351H401C397.625 351 394.625 352.5 392.375 354.562C400.062 358.688 405.312 366.188 406.625 375H419C422.188 375 425 372.375 425 369V363C425 356.438 419.562 351 413 351ZM365 351C376.438 351 386 341.625 386 330C386 318.562 376.438 309 365 309C353.375 309 344 318.562 344 330C344 341.625 353.375 351 365 351ZM379.25 357H377.75C373.812 358.875 369.5 360 365 360C360.312 360 356 358.875 352.062 357H350.562C338.562 357 329 366.75 329 378.75V384C329 389.062 332.938 393 338 393H392C396.875 393 401 389.062 401 384V378.75C401 366.75 391.25 357 379.25 357ZM337.438 354.562C335.188 352.5 332.188 351 329 351H317C310.25 351 305 356.438 305 363V369C305 372.375 307.625 375 311 375H323.188C324.5 366.188 329.75 358.688 337.438 354.562Z" fill="#2433BC"/>
<defs>
<filter id="filter0_d_25_197" x="0" y="0" width="556" height="556" filterUnits="userSpaceOnUse" color-interpolation-filters="sRGB">
<feFlood flood-opacity="0" result="BackgroundImageFix"/>
<feColorMatrix in="SourceAlpha" type="matrix" values="0 0 0 0 0 0 0 0 0 0 0 0 0 0 0 0 0 0 127 0" result="hardAlpha"/>
<feMorphology radius="4" operator="dilate" in="SourceAlpha" result="effect1_dropShadow_25_197"/>
<feOffset dy="2"/>
<feGaussianBlur stdDeviation="12"/>
<feComposite in2="hardAlpha" operator="out"/>
<feColorMatrix type="matrix" values="0 0 0 0 0.36 0 0 0 0 0.504 0 0 0 0 0.54 0 0 0 0.12 0"/>
<feBlend mode="normal" in2="BackgroundImageFix" result="effect1_dropShadow_25_197"/>
<feBlend mode="normal" in="SourceGraphic" in2="effect1_dropShadow_25_197" result="shape"/>
</filter>
</defs>
</svg>
